<svg width="400" height="441.2213740458015" viewBox="0 0 400 441.2213740458015" xmlns="http://www.w3.org/2000/svg"><path d="M145.712 75.872C87.644 105.294 82.241 196.959 136.370 234.378C169.470 257.260 216.578 254.312 246.947 227.458L251.527 223.408 251.908 292.429L252.290 361.450 267.176 361.450L282.061 361.450 282.061 253.435C282.061 133.429 282.374 141.333 276.965 124.909C269.804 103.171 254.844 85.511 235.204 75.614C229.618 72.799 229.764 72.738 226.177 79.389C220.726 89.498 218.011 94.377 217.055 95.781C215.577 97.953 215.720 98.259 218.893 99.711C244.760 111.547 258.245 150.130 247.542 181.679C229.351 235.300 152.289 235.042 133.737 181.298C125.420 157.207 132.685 124.144 149.733 108.499C153.758 104.805 162.286 99.243 163.931 99.239C165.687 99.235 164.915 96.847 160.761 89.427C158.493 85.376 155.604 80.182 154.340 77.885C151.495 72.712 151.805 72.785 145.712 75.872" stroke="none" fill="#000000" fill-rule="evenodd"/></svg>
