<svg viewBox="0 0 400 436.5805168986084" xmlns="http://www.w3.org/2000/svg"><path d="M174.950 75.544 C 169.280 76.177,158.089 78.742,154.672 80.193 C 137.180 87.616,125.603 96.262,116.162 108.952 C 84.363 151.695,98.423 219.616,143.805 242.483 C 150.584 245.899,150.476 245.967,156.986 234.195 C 164.699 220.245,164.474 221.433,159.854 219.092 C 120.909 199.357,119.509 131.436,157.604 109.953 C 181.421 96.521,212.552 102.090,228.882 122.704 C 234.550 129.859,238.537 138.150,241.196 148.310 C 241.743 150.400,242.185 186.674,242.485 254.076 L 242.942 356.660 257.478 356.877 L 272.013 357.094 271.743 251.111 C 271.454 137.472,271.730 145.947,267.917 133.598 C 266.177 127.963,259.264 113.718,258.269 113.718 C 257.931 113.718,257.654 113.333,257.654 112.862 C 257.654 107.389,237.148 89.626,223.573 83.339 C 220.667 81.994,217.720 80.617,217.024 80.279 C 209.647 76.705,187.191 74.178,174.950 75.544" fill="currentColor"/></svg>
