<svg viewBox="0,0,400,439.2785571142284" xmlns="http://www.w3.org/2000/svg"><path d="M248.501 74.729C248.107 74.979,247.981 88.769,247.901 140.617C247.810 199.509,247.737 206.201,247.179 206.309C246.838 206.374,245.152 205.146,243.432 203.578C238.618 199.190,226.496 190.800,224.969 190.800C224.867 190.800,223.662 190.272,222.292 189.627C217.865 187.543,210.468 184.920,207.600 184.417C206.610 184.244,204.900 183.907,203.800 183.670C193.052 181.348,178.565 181.406,168.000 183.814C166.570 184.140,165.001 184.405,164.514 184.403C164.026 184.402,163.036 184.659,162.314 184.976C161.591 185.293,159.920 185.860,158.600 186.236C155.739 187.052,153.089 188.066,149.708 189.640C148.338 190.278,147.118 190.800,146.996 190.800C146.875 190.800,145.476 191.545,143.888 192.456C142.299 193.367,140.640 194.316,140.200 194.565C131.207 199.644,119.537 211.183,113.821 220.648C112.566 222.727,108.971 229.397,108.566 230.400C108.433 230.730,107.971 231.900,107.540 233.000C107.110 234.100,106.603 235.360,106.415 235.800C102.971 243.858,100.959 257.251,101.397 269.200C101.775 279.518,101.979 280.964,104.389 290.400C104.811 292.050,105.928 295.463,106.419 296.600C106.609 297.040,107.217 298.508,107.771 299.863C109.011 302.894,112.097 308.806,113.648 311.120C114.281 312.066,114.800 312.939,114.800 313.060C114.800 315.770,129.671 330.568,137.600 335.749C139.470 336.971,141.181 338.112,141.402 338.285C141.969 338.730,149.804 342.585,152.200 343.598C153.300 344.063,154.560 344.600,155.000 344.790C162.491 348.033,177.842 350.784,188.400 350.776C199.190 350.768,215.842 347.835,222.200 344.822C222.640 344.613,223.990 344.058,225.200 343.587C226.410 343.117,227.670 342.597,228.000 342.433C231.923 340.480,234.967 338.829,236.668 337.733C237.805 337.000,238.838 336.400,238.963 336.400C239.088 336.400,239.508 336.144,239.895 335.831C240.283 335.518,242.310 333.983,244.400 332.420C248.470 329.377,254.735 323.403,257.110 320.300C257.910 319.255,258.752 318.393,258.982 318.384C259.212 318.375,259.799 317.515,260.286 316.474C260.773 315.433,261.538 314.188,261.986 313.707C262.434 313.227,262.800 312.723,262.800 312.589C262.800 312.454,263.322 311.585,263.961 310.657C265.889 307.855,270.800 297.830,270.800 296.697C270.800 296.340,270.966 295.945,271.169 295.819C271.372 295.694,271.666 295.009,271.823 294.297C271.979 293.585,272.332 292.462,272.607 291.802C272.883 291.141,273.501 288.800,273.981 286.600C274.461 284.400,275.031 281.797,275.248 280.815C276.199 276.512,276.378 259.097,276.389 169.747L276.400 74.893 275.500 74.652C274.153 74.291,249.078 74.362,248.501 74.729M200.269 208.855C201.111 209.066,202.790 209.485,204.000 209.785C209.038 211.036,209.742 211.254,210.541 211.814C211.001 212.136,211.622 212.400,211.921 212.400C212.625 212.400,218.932 215.542,221.000 216.923C223.998 218.925,224.600 219.369,227.000 221.348C232.757 226.094,237.676 232.411,241.387 239.823C242.164 241.375,242.800 242.788,242.800 242.962C242.800 243.136,243.048 243.846,243.351 244.540C244.398 246.934,245.174 249.406,245.441 251.200C245.589 252.190,245.871 253.206,246.068 253.457C247.209 254.911,247.440 273.718,246.367 277.800C246.135 278.680,245.768 280.300,245.551 281.400C244.326 287.612,240.090 296.338,235.162 302.800C231.992 306.958,223.646 314.800,222.392 314.800C222.208 314.800,221.798 315.059,221.482 315.375C219.442 317.415,209.065 321.741,202.400 323.329C193.600 325.426,172.953 324.547,170.220 321.960C170.011 321.762,169.504 321.600,169.094 321.600C166.496 321.600,156.598 316.329,151.200 312.071C145.932 307.916,136.420 296.091,136.398 293.671C136.396 293.522,136.104 292.860,135.747 292.200C134.904 290.638,132.812 284.993,132.411 283.200C132.239 282.430,131.904 280.990,131.666 280.000C129.296 270.128,130.248 250.180,133.240 247.020C133.438 246.811,133.600 246.339,133.600 245.971C133.600 244.870,135.580 240.437,137.958 236.213C143.437 226.484,154.059 216.888,163.600 213.050C164.590 212.652,165.940 212.087,166.600 211.794C167.727 211.293,170.794 210.386,175.400 209.189C179.700 208.072,196.265 207.849,200.269 208.855" fill="currentColor"/></svg>
