<svg viewBox="0 0 400 454.54545454545456" xmlns="http://www.w3.org/2000/svg"><g><path d="M114.411 48.184C114.176 48.796,114.1 101.149,114.242 164.524L114.5 279.752 116.391 288.365C120.984 309.283,128.962 324.824,141.98 338.21C151.875 348.387,169.262 359.318,171.558 356.808C173.433 354.758,185.989 331.005,185.317 330.781C160.611 322.545,142.925 283.617,149.138 251.147C162.928 179.079,264.759 180.466,277.339 252.893C282.542 282.842,268.894 315.899,246.552 327.468C239.746 330.993,239.698 330.062,247.412 343.989C255.999 359.49,254.693 358.555,262.261 354.616C323.635 322.671,329.638 225.38,272.727 184.985C236.789 159.476,183.462 162.539,152.479 191.892C150.661 193.614,148.711 195.028,148.145 195.032C147.334 195.039,147.072 179.461,146.905 121.281L146.694 47.521 130.766 47.296C118.023 47.117,114.753 47.294,114.411 48.184" stroke="none" fill="currentColor" fill-rule="evenodd"></path></g></svg>
