<svg viewBox="0 0 400 475" xmlns="http://www.w3.org/2000/svg"><path d="M146.775 73.193C147.528 73.409,148.289 73.814,148.466 74.093C148.643 74.372,148.791 105.414,148.794 143.076C148.798 188.289,148.936 211.637,149.200 211.800C149.420 211.936,149.600 211.859,149.600 211.629C149.600 211.399,150.365 210.724,151.300 210.128C152.235 209.531,153.360 208.745,153.800 208.380C154.240 208.014,155.230 207.376,156.000 206.962C156.770 206.548,157.670 206.004,158.000 205.753C158.714 205.211,164.411 202.288,166.400 201.444C170.857 199.553,172.842 198.800,173.374 198.800C173.704 198.800,174.564 198.545,175.286 198.234C177.389 197.329,182.489 195.997,183.850 195.999C184.537 195.999,185.828 195.743,186.718 195.429C192.101 193.530,216.175 193.491,223.000 195.370C224.100 195.673,226.170 196.115,227.600 196.351C230.626 196.852,234.823 197.949,235.400 198.390C235.620 198.558,236.467 198.816,237.283 198.963C238.631 199.205,240.325 199.842,243.860 201.433C244.554 201.745,245.231 202.000,245.366 202.000C246.200 202.000,257.215 207.870,257.844 208.650C258.088 208.952,258.480 209.200,258.713 209.200C258.947 209.200,259.918 209.787,260.869 210.504C261.821 211.221,263.140 212.151,263.800 212.570C264.787 213.196,267.656 215.486,269.854 217.400C272.221 219.462,275.200 222.612,275.200 223.052C275.200 223.354,275.429 223.600,275.710 223.600C276.160 223.600,277.101 224.532,280.563 228.400C283.410 231.581,289.646 241.333,292.074 246.400C294.563 251.594,295.557 253.874,295.825 255.000C295.982 255.660,296.268 256.401,296.461 256.647C296.998 257.334,298.800 263.606,298.800 264.790C298.800 265.368,298.988 266.028,299.217 266.257C301.455 268.495,302.685 296.818,300.953 306.200C299.771 312.598,299.539 313.590,299.173 313.817C298.968 313.944,298.800 314.558,298.800 315.181C298.800 316.506,297.357 321.437,296.629 322.600C296.354 323.040,296.019 323.961,295.885 324.647C295.678 325.703,293.525 330.810,292.447 332.800C292.269 333.130,291.491 334.570,290.720 336.000C286.758 343.344,280.309 352.200,276.129 356.036C275.508 356.606,274.114 358.021,273.031 359.179C270.211 362.195,258.105 371.600,257.042 371.600C256.972 371.600,255.404 372.462,253.557 373.515C251.711 374.569,249.030 375.938,247.600 376.558C246.170 377.179,243.920 378.184,242.600 378.792C241.280 379.400,239.570 380.032,238.800 380.195C238.030 380.359,237.205 380.649,236.967 380.840C236.353 381.332,229.775 383.200,228.655 383.200C228.143 383.200,227.194 383.464,226.547 383.786C225.901 384.109,224.298 384.485,222.986 384.622C221.674 384.760,219.303 385.126,217.717 385.436C214.325 386.100,189.648 386.231,187.000 385.599C186.120 385.390,183.870 385.024,182.000 384.787C180.130 384.550,178.077 384.095,177.439 383.778C176.800 383.460,175.720 383.192,175.039 383.182C174.357 383.173,173.080 382.905,172.200 382.588C171.320 382.271,170.342 382.009,170.026 382.006C169.711 382.003,168.721 381.673,167.826 381.274C166.932 380.874,165.210 380.229,164.000 379.840C160.438 378.696,152.272 374.874,148.200 372.445C136.253 365.320,127.248 357.237,119.214 346.428C116.848 343.244,117.416 341.673,121.502 340.105C121.855 339.970,123.053 339.261,124.163 338.530C125.273 337.798,126.375 337.200,126.611 337.200C126.847 337.200,127.257 336.983,127.522 336.718C127.787 336.453,128.987 335.688,130.189 335.018C131.390 334.348,135.034 332.257,138.287 330.371C146.922 325.363,146.757 325.382,148.959 329.128C149.537 330.113,154.361 335.613,155.800 336.929C162.182 342.765,167.183 345.998,175.400 349.600C177.457 350.501,179.303 351.134,181.800 351.791C182.900 352.081,184.340 352.504,185.000 352.732C189.345 354.230,205.949 354.896,212.235 353.825C214.250 353.481,216.516 353.200,217.270 353.200C218.023 353.200,218.840 353.000,219.084 352.756C219.328 352.512,220.489 352.076,221.664 351.788C225.155 350.932,226.977 350.234,232.000 347.825C240.327 343.833,247.050 338.467,252.833 331.200C253.970 329.770,255.059 328.540,255.251 328.467C255.443 328.393,255.600 328.121,255.600 327.861C255.600 327.602,256.203 326.492,256.940 325.395C258.562 322.980,261.600 317.136,261.600 316.431C261.600 316.152,261.868 315.446,262.195 314.862C263.009 313.408,264.009 310.528,264.369 308.600C264.534 307.720,264.959 306.010,265.315 304.800C266.316 301.394,266.960 292.787,266.637 287.148C266.123 278.195,265.806 276.237,263.764 269.400C262.605 265.518,258.988 257.599,257.164 254.948C256.524 254.017,256.000 253.140,256.000 252.999C256.000 251.601,245.818 240.902,242.000 238.287C241.010 237.610,240.056 236.818,239.880 236.527C239.704 236.237,239.340 236.000,239.071 236.000C238.802 236.000,237.625 235.370,236.456 234.600C235.287 233.830,234.256 233.200,234.166 233.200C234.076 233.200,232.697 232.585,231.101 231.833C228.478 230.598,226.604 229.861,222.400 228.413C221.630 228.148,219.650 227.680,218.000 227.374C216.350 227.068,214.371 226.633,213.603 226.409C210.893 225.616,194.081 225.897,190.325 226.797C188.496 227.236,186.503 227.596,185.895 227.597C185.287 227.599,184.477 227.775,184.095 227.990C183.713 228.204,181.960 228.853,180.200 229.432C177.479 230.327,171.817 232.908,169.000 234.537C167.862 235.196,163.439 238.131,163.200 238.386C163.090 238.504,162.100 239.312,161.000 240.183C157.984 242.569,154.401 246.369,151.185 250.592C148.876 253.624,148.048 254.429,147.049 254.611C144.014 255.166,115.183 254.620,114.791 254.000C114.556 253.627,114.410 219.497,114.406 163.723L114.400 74.045L115.289 73.423C116.342 72.685,144.294 72.481,146.775 73.193" fill="currentColor"/></svg>
