<svg viewBox="0 0 400 491.07142857142856" xmlns="http://www.w3.org/2000/svg"><path d="M141.754 83.270 C 117.524 96.543,100.022 119.109,92.776 146.419 C 88.293 163.319,88.427 158.759,88.409 294.866 L 88.393 422.321 106.250 422.321 L 124.107 422.321 124.107 340.625 C 124.107 275.850,124.338 258.934,125.223 258.952 C 125.837 258.966,128.129 260.616,130.316 262.620 C 171.523 300.370,240.206 297.717,278.190 256.908 C 305.062 228.038,313.741 182.028,300.042 141.071 C 291.340 115.055,274.903 95.218,251.635 82.651 C 244.109 78.586,243.740 78.623,241.086 83.705 C 239.869 86.038,236.330 92.467,233.224 97.992 C 226.812 109.395,226.796 108.599,233.511 112.098 C 261.649 126.761,276.413 168.750,266.104 204.796 C 255.761 240.964,217.593 262.832,180.132 254.052 C 136.317 243.782,114.430 197.649,130.555 149.554 C 136.403 132.110,152.934 113.149,164.915 110.142 C 167.021 109.614,167.556 108.149,166.191 106.652 C 165.765 106.185,163.285 101.786,160.679 96.875 C 149.797 76.366,151.769 77.784,141.754 83.270 " fill="Black"/></svg>
